<svg width="169" height="28" viewBox="0 0 169 28" fill="none" xmlns="http://www.w3.org/2000/svg">
<path d="M27.132 1.206V27H24.072V8.046C24.072 7.794 24.078 7.524 24.09 7.236C24.114 6.948 24.138 6.654 24.162 6.354L15.306 22.482C15.03 23.022 14.61 23.292 14.046 23.292H13.542C12.978 23.292 12.558 23.022 12.282 22.482L3.246 6.282C3.318 6.918 3.354 7.506 3.354 8.046V27H0.294V1.206H2.868C3.18 1.206 3.42 1.236 3.588 1.296C3.756 1.356 3.918 1.524 4.074 1.8L12.984 17.676C13.128 17.964 13.266 18.264 13.398 18.576C13.542 18.888 13.674 19.206 13.794 19.53C13.914 19.206 14.04 18.888 14.172 18.576C14.304 18.252 14.448 17.946 14.604 17.658L23.352 1.8C23.496 1.524 23.652 1.356 23.82 1.296C24 1.236 24.246 1.206 24.558 1.206H27.132ZM44.644 11.412C45.04 10.968 45.46 10.566 45.904 10.206C46.348 9.846 46.816 9.54 47.308 9.288C47.812 9.024 48.34 8.826 48.892 8.694C49.456 8.55 50.062 8.478 50.71 8.478C51.706 8.478 52.582 8.646 53.338 8.982C54.106 9.306 54.742 9.774 55.246 10.386C55.762 10.986 56.152 11.712 56.416 12.564C56.68 13.416 56.812 14.358 56.812 15.39V27H53.59V15.39C53.59 14.01 53.272 12.942 52.636 12.186C52.012 11.418 51.058 11.034 49.774 11.034C48.826 11.034 47.938 11.262 47.11 11.718C46.294 12.174 45.538 12.792 44.842 13.572V27H41.62V8.766H43.546C44.002 8.766 44.284 8.988 44.392 9.432L44.644 11.412ZM64.9163 11.196C65.6963 10.368 66.5603 9.708 67.5083 9.216C68.4563 8.724 69.5483 8.478 70.7843 8.478C71.7803 8.478 72.6563 8.646 73.4123 8.982C74.1803 9.306 74.8163 9.774 75.3203 10.386C75.8363 10.986 76.2263 11.712 76.4903 12.564C76.7543 13.416 76.8863 14.358 76.8863 15.39V27H73.6643V15.39C73.6643 14.01 73.3463 12.942 72.7103 12.186C72.0863 11.418 71.1323 11.034 69.8483 11.034C68.9003 11.034 68.0123 11.262 67.1843 11.718C66.3683 12.174 65.6123 12.792 64.9163 13.572V27H61.6943V0.485999H64.9163V11.196ZM91.6505 18.792C90.1745 18.84 88.9145 18.96 87.8705 19.152C86.8385 19.332 85.9925 19.572 85.3325 19.872C84.6845 20.172 84.2105 20.526 83.9105 20.934C83.6225 21.342 83.4785 21.798 83.4785 22.302C83.4785 22.782 83.5565 23.196 83.7125 23.544C83.8685 23.892 84.0785 24.18 84.3425 24.408C84.6185 24.624 84.9365 24.786 85.2965 24.894C85.6685 24.99 86.0645 25.038 86.4845 25.038C87.0485 25.038 87.5645 24.984 88.0325 24.876C88.5005 24.756 88.9385 24.588 89.3465 24.372C89.7665 24.156 90.1625 23.898 90.5345 23.598C90.9185 23.298 91.2905 22.956 91.6505 22.572V18.792ZM81.3005 11.34C82.3085 10.368 83.3945 9.642 84.5585 9.162C85.7225 8.682 87.0125 8.442 88.4285 8.442C89.4485 8.442 90.3545 8.61 91.1465 8.946C91.9385 9.282 92.6045 9.75 93.1445 10.35C93.6845 10.95 94.0925 11.676 94.3685 12.528C94.6445 13.38 94.7825 14.316 94.7825 15.336V27H93.3605C93.0485 27 92.8085 26.952 92.6405 26.856C92.4725 26.748 92.3405 26.544 92.2445 26.244L91.8845 24.516C91.4045 24.96 90.9365 25.356 90.4805 25.704C90.0245 26.04 89.5445 26.328 89.0405 26.568C88.5365 26.796 87.9965 26.97 87.4205 27.09C86.8565 27.222 86.2265 27.288 85.5305 27.288C84.8225 27.288 84.1565 27.192 83.5325 27C82.9085 26.796 82.3625 26.496 81.8945 26.1C81.4385 25.704 81.0725 25.206 80.7965 24.606C80.5325 23.994 80.4005 23.274 80.4005 22.446C80.4005 21.726 80.5985 21.036 80.9945 20.376C81.3905 19.704 82.0325 19.11 82.9205 18.594C83.8085 18.078 84.9665 17.658 86.3945 17.334C87.8225 16.998 89.5745 16.806 91.6505 16.758V15.336C91.6505 13.92 91.3445 12.852 90.7325 12.132C90.1205 11.4 89.2265 11.034 88.0505 11.034C87.2585 11.034 86.5925 11.136 86.0525 11.34C85.5245 11.532 85.0625 11.754 84.6665 12.006C84.2825 12.246 83.9465 12.468 83.6585 12.672C83.3825 12.864 83.1065 12.96 82.8305 12.96C82.6145 12.96 82.4285 12.906 82.2725 12.798C82.1165 12.678 81.9845 12.534 81.8765 12.366L81.3005 11.34ZM118.756 18.792C117.28 18.84 116.02 18.96 114.976 19.152C113.944 19.332 113.098 19.572 112.438 19.872C111.79 20.172 111.316 20.526 111.016 20.934C110.728 21.342 110.584 21.798 110.584 22.302C110.584 22.782 110.662 23.196 110.818 23.544C110.974 23.892 111.184 24.18 111.448 24.408C111.724 24.624 112.042 24.786 112.402 24.894C112.774 24.99 113.17 25.038 113.59 25.038C114.154 25.038 114.67 24.984 115.138 24.876C115.606 24.756 116.044 24.588 116.452 24.372C116.872 24.156 117.268 23.898 117.64 23.598C118.024 23.298 118.396 22.956 118.756 22.572V18.792ZM108.406 11.34C109.414 10.368 110.5 9.642 111.664 9.162C112.828 8.682 114.118 8.442 115.534 8.442C116.554 8.442 117.46 8.61 118.252 8.946C119.044 9.282 119.71 9.75 120.25 10.35C120.79 10.95 121.198 11.676 121.474 12.528C121.75 13.38 121.888 14.316 121.888 15.336V27H120.466C120.154 27 119.914 26.952 119.746 26.856C119.578 26.748 119.446 26.544 119.35 26.244L118.99 24.516C118.51 24.96 118.042 25.356 117.586 25.704C117.13 26.04 116.65 26.328 116.146 26.568C115.642 26.796 115.102 26.97 114.526 27.09C113.962 27.222 113.332 27.288 112.636 27.288C111.928 27.288 111.262 27.192 110.638 27C110.014 26.796 109.468 26.496 109 26.1C108.544 25.704 108.178 25.206 107.902 24.606C107.638 23.994 107.506 23.274 107.506 22.446C107.506 21.726 107.704 21.036 108.1 20.376C108.496 19.704 109.138 19.11 110.026 18.594C110.914 18.078 112.072 17.658 113.5 17.334C114.928 16.998 116.68 16.806 118.756 16.758V15.336C118.756 13.92 118.45 12.852 117.838 12.132C117.226 11.4 116.332 11.034 115.156 11.034C114.364 11.034 113.698 11.136 113.158 11.34C112.63 11.532 112.168 11.754 111.772 12.006C111.388 12.246 111.052 12.468 110.764 12.672C110.488 12.864 110.212 12.96 109.936 12.96C109.72 12.96 109.534 12.906 109.378 12.798C109.222 12.678 109.09 12.534 108.982 12.366L108.406 11.34ZM141.762 8.766V27H139.854C139.398 27 139.11 26.778 138.99 26.334L138.738 24.372C137.946 25.248 137.058 25.956 136.074 26.496C135.09 27.024 133.962 27.288 132.69 27.288C131.694 27.288 130.812 27.126 130.044 26.802C129.288 26.466 128.652 25.998 128.136 25.398C127.62 24.798 127.23 24.072 126.966 23.22C126.714 22.368 126.588 21.426 126.588 20.394V8.766H129.792V20.394C129.792 21.774 130.104 22.842 130.728 23.598C131.364 24.354 132.33 24.732 133.626 24.732C134.574 24.732 135.456 24.51 136.272 24.066C137.1 23.61 137.862 22.986 138.558 22.194V8.766H141.762ZM165.233 18.792C163.757 18.84 162.497 18.96 161.453 19.152C160.421 19.332 159.575 19.572 158.915 19.872C158.267 20.172 157.793 20.526 157.493 20.934C157.205 21.342 157.061 21.798 157.061 22.302C157.061 22.782 157.139 23.196 157.295 23.544C157.451 23.892 157.661 24.18 157.925 24.408C158.201 24.624 158.519 24.786 158.879 24.894C159.251 24.99 159.647 25.038 160.067 25.038C160.631 25.038 161.147 24.984 161.615 24.876C162.083 24.756 162.521 24.588 162.929 24.372C163.349 24.156 163.745 23.898 164.117 23.598C164.501 23.298 164.873 22.956 165.233 22.572V18.792ZM154.883 11.34C155.891 10.368 156.977 9.642 158.141 9.162C159.305 8.682 160.595 8.442 162.011 8.442C163.031 8.442 163.937 8.61 164.729 8.946C165.521 9.282 166.187 9.75 166.727 10.35C167.267 10.95 167.675 11.676 167.951 12.528C168.227 13.38 168.365 14.316 168.365 15.336V27H166.943C166.631 27 166.391 26.952 166.223 26.856C166.055 26.748 165.923 26.544 165.827 26.244L165.467 24.516C164.987 24.96 164.519 25.356 164.062 25.704C163.607 26.04 163.127 26.328 162.623 26.568C162.119 26.796 161.579 26.97 161.003 27.09C160.439 27.222 159.809 27.288 159.113 27.288C158.405 27.288 157.739 27.192 157.115 27C156.491 26.796 155.945 26.496 155.477 26.1C155.021 25.704 154.655 25.206 154.379 24.606C154.115 23.994 153.983 23.274 153.983 22.446C153.983 21.726 154.181 21.036 154.577 20.376C154.973 19.704 155.615 19.11 156.503 18.594C157.391 18.078 158.549 17.658 159.977 17.334C161.405 16.998 163.157 16.806 165.233 16.758V15.336C165.233 13.92 164.927 12.852 164.315 12.132C163.703 11.4 162.809 11.034 161.633 11.034C160.841 11.034 160.175 11.136 159.635 11.34C159.107 11.532 158.645 11.754 158.249 12.006C157.865 12.246 157.529 12.468 157.241 12.672C156.965 12.864 156.689 12.96 156.413 12.96C156.197 12.96 156.011 12.906 155.855 12.798C155.699 12.678 155.567 12.534 155.458 12.366L154.883 11.34Z" fill="white"/>
<path d="M36.3556 8.766V27H33.1516V8.766H36.3556ZM37.0396 3.042C37.0396 3.354 36.9736 3.648 36.8416 3.924C36.7216 4.188 36.5536 4.428 36.3376 4.644C36.1336 4.848 35.8876 5.01 35.5996 5.13C35.3236 5.25 35.0296 5.31 34.7176 5.31C34.4056 5.31 34.1116 5.25 33.8356 5.13C33.5716 5.01 33.3376 4.848 33.1336 4.644C32.9296 4.428 32.7676 4.188 32.6476 3.924C32.5276 3.648 32.4676 3.354 32.4676 3.042C32.4676 2.73 32.5276 2.436 32.6476 2.16C32.7676 1.872 32.9296 1.626 33.1336 1.422C33.3376 1.206 33.5716 1.038 33.8356 0.917998C34.1116 0.797998 34.4056 0.737998 34.7176 0.737998C35.0296 0.737998 35.3236 0.797998 35.5996 0.917998C35.8876 1.038 36.1336 1.206 36.3376 1.422C36.5536 1.626 36.7216 1.872 36.8416 2.16C36.9736 2.436 37.0396 2.73 37.0396 3.042ZM150.155 0.485999V27H146.951V0.485999H150.155Z" fill="#E8DB3F"/>
</svg>
