<svg width="64" height="64" viewBox="0 0 64 64" fill="none" xmlns="http://www.w3.org/2000/svg">
<rect width="64" height="64" rx="5" fill="#11676B"/>
<path d="M13.044 28.402V37H12.024V30.682C12.024 30.598 12.026 30.508 12.03 30.412C12.038 30.316 12.046 30.218 12.054 30.118L9.102 35.494C9.01 35.674 8.87 35.764 8.682 35.764H8.514C8.326 35.764 8.186 35.674 8.094 35.494L5.082 30.094C5.106 30.306 5.118 30.502 5.118 30.682V37H4.098V28.402H4.956C5.06 28.402 5.14 28.412 5.196 28.432C5.252 28.452 5.306 28.508 5.358 28.6L8.328 33.892C8.376 33.988 8.422 34.088 8.466 34.192C8.514 34.296 8.558 34.402 8.598 34.51C8.638 34.402 8.68 34.296 8.724 34.192C8.768 34.084 8.816 33.982 8.868 33.886L11.784 28.6C11.832 28.508 11.884 28.452 11.94 28.432C12 28.412 12.082 28.402 12.186 28.402H13.044ZM18.8813 31.804C19.0133 31.656 19.1533 31.522 19.3013 31.402C19.4493 31.282 19.6053 31.18 19.7693 31.096C19.9373 31.008 20.1133 30.942 20.2973 30.898C20.4853 30.85 20.6873 30.826 20.9033 30.826C21.2353 30.826 21.5273 30.882 21.7793 30.994C22.0353 31.102 22.2473 31.258 22.4153 31.462C22.5873 31.662 22.7173 31.904 22.8053 32.188C22.8933 32.472 22.9373 32.786 22.9373 33.13V37H21.8633V33.13C21.8633 32.67 21.7573 32.314 21.5453 32.062C21.3373 31.806 21.0193 31.678 20.5913 31.678C20.2753 31.678 19.9793 31.754 19.7033 31.906C19.4313 32.058 19.1793 32.264 18.9473 32.524V37H17.8733V30.922H18.5153C18.6673 30.922 18.7613 30.996 18.7973 31.144L18.8813 31.804ZM25.6388 31.732C25.8988 31.456 26.1868 31.236 26.5028 31.072C26.8188 30.908 27.1828 30.826 27.5948 30.826C27.9268 30.826 28.2188 30.882 28.4708 30.994C28.7268 31.102 28.9388 31.258 29.1068 31.462C29.2788 31.662 29.4088 31.904 29.4968 32.188C29.5848 32.472 29.6288 32.786 29.6288 33.13V37H28.5548V33.13C28.5548 32.67 28.4488 32.314 28.2368 32.062C28.0288 31.806 27.7108 31.678 27.2828 31.678C26.9668 31.678 26.6708 31.754 26.3948 31.906C26.1228 32.058 25.8708 32.264 25.6388 32.524V37H24.5648V28.162H25.6388V31.732ZM34.5502 34.264C34.0582 34.28 33.6382 34.32 33.2902 34.384C32.9462 34.444 32.6642 34.524 32.4442 34.624C32.2282 34.724 32.0702 34.842 31.9702 34.978C31.8742 35.114 31.8262 35.266 31.8262 35.434C31.8262 35.594 31.8522 35.732 31.9042 35.848C31.9562 35.964 32.0262 36.06 32.1142 36.136C32.2062 36.208 32.3122 36.262 32.4322 36.298C32.5562 36.33 32.6882 36.346 32.8282 36.346C33.0162 36.346 33.1882 36.328 33.3442 36.292C33.5002 36.252 33.6462 36.196 33.7822 36.124C33.9222 36.052 34.0542 35.966 34.1782 35.866C34.3062 35.766 34.4302 35.652 34.5502 35.524V34.264ZM31.1002 31.78C31.4362 31.456 31.7982 31.214 32.1862 31.054C32.5742 30.894 33.0042 30.814 33.4762 30.814C33.8162 30.814 34.1182 30.87 34.3822 30.982C34.6462 31.094 34.8682 31.25 35.0482 31.45C35.2282 31.65 35.3642 31.892 35.4562 32.176C35.5482 32.46 35.5942 32.772 35.5942 33.112V37H35.1202C35.0162 37 34.9362 36.984 34.8802 36.952C34.8242 36.916 34.7802 36.848 34.7482 36.748L34.6282 36.172C34.4682 36.32 34.3122 36.452 34.1602 36.568C34.0082 36.68 33.8482 36.776 33.6802 36.856C33.5122 36.932 33.3322 36.99 33.1402 37.03C32.9522 37.074 32.7422 37.096 32.5102 37.096C32.2742 37.096 32.0522 37.064 31.8442 37C31.6362 36.932 31.4542 36.832 31.2982 36.7C31.1462 36.568 31.0242 36.402 30.9322 36.202C30.8442 35.998 30.8002 35.758 30.8002 35.482C30.8002 35.242 30.8662 35.012 30.9982 34.792C31.1302 34.568 31.3442 34.37 31.6402 34.198C31.9362 34.026 32.3222 33.886 32.7982 33.778C33.2742 33.666 33.8582 33.602 34.5502 33.586V33.112C34.5502 32.64 34.4482 32.284 34.2442 32.044C34.0402 31.8 33.7422 31.678 33.3502 31.678C33.0862 31.678 32.8642 31.712 32.6842 31.78C32.5082 31.844 32.3542 31.918 32.2222 32.002C32.0942 32.082 31.9822 32.156 31.8862 32.224C31.7942 32.288 31.7022 32.32 31.6102 32.32C31.5382 32.32 31.4762 32.302 31.4242 32.266C31.3722 32.226 31.3282 32.178 31.2922 32.122L31.1002 31.78ZM43.5853 34.264C43.0933 34.28 42.6733 34.32 42.3253 34.384C41.9813 34.444 41.6993 34.524 41.4793 34.624C41.2633 34.724 41.1053 34.842 41.0053 34.978C40.9093 35.114 40.8613 35.266 40.8613 35.434C40.8613 35.594 40.8873 35.732 40.9393 35.848C40.9913 35.964 41.0613 36.06 41.1493 36.136C41.2413 36.208 41.3473 36.262 41.4673 36.298C41.5913 36.33 41.7233 36.346 41.8633 36.346C42.0513 36.346 42.2233 36.328 42.3793 36.292C42.5353 36.252 42.6813 36.196 42.8173 36.124C42.9573 36.052 43.0893 35.966 43.2133 35.866C43.3413 35.766 43.4653 35.652 43.5853 35.524V34.264ZM40.1353 31.78C40.4713 31.456 40.8333 31.214 41.2213 31.054C41.6093 30.894 42.0393 30.814 42.5113 30.814C42.8513 30.814 43.1533 30.87 43.4173 30.982C43.6813 31.094 43.9033 31.25 44.0833 31.45C44.2633 31.65 44.3993 31.892 44.4913 32.176C44.5833 32.46 44.6293 32.772 44.6293 33.112V37H44.1553C44.0513 37 43.9713 36.984 43.9153 36.952C43.8593 36.916 43.8153 36.848 43.7833 36.748L43.6633 36.172C43.5033 36.32 43.3473 36.452 43.1953 36.568C43.0433 36.68 42.8833 36.776 42.7153 36.856C42.5473 36.932 42.3673 36.99 42.1753 37.03C41.9873 37.074 41.7773 37.096 41.5453 37.096C41.3093 37.096 41.0873 37.064 40.8793 37C40.6713 36.932 40.4893 36.832 40.3333 36.7C40.1813 36.568 40.0593 36.402 39.9673 36.202C39.8793 35.998 39.8353 35.758 39.8353 35.482C39.8353 35.242 39.9013 35.012 40.0333 34.792C40.1653 34.568 40.3793 34.37 40.6753 34.198C40.9713 34.026 41.3573 33.886 41.8333 33.778C42.3093 33.666 42.8933 33.602 43.5853 33.586V33.112C43.5853 32.64 43.4833 32.284 43.2793 32.044C43.0753 31.8 42.7773 31.678 42.3853 31.678C42.1213 31.678 41.8993 31.712 41.7193 31.78C41.5433 31.844 41.3893 31.918 41.2573 32.002C41.1293 32.082 41.0173 32.156 40.9213 32.224C40.8293 32.288 40.7373 32.32 40.6453 32.32C40.5733 32.32 40.5113 32.302 40.4593 32.266C40.4073 32.226 40.3633 32.178 40.3273 32.122L40.1353 31.78ZM51.2542 30.922V37H50.6182C50.4662 37 50.3702 36.926 50.3302 36.778L50.2462 36.124C49.9822 36.416 49.6862 36.652 49.3582 36.832C49.0302 37.008 48.6542 37.096 48.2302 37.096C47.8982 37.096 47.6042 37.042 47.3482 36.934C47.0962 36.822 46.8842 36.666 46.7122 36.466C46.5402 36.266 46.4102 36.024 46.3222 35.74C46.2382 35.456 46.1962 35.142 46.1962 34.798V30.922H47.2642V34.798C47.2642 35.258 47.3682 35.614 47.5762 35.866C47.7882 36.118 48.1102 36.244 48.5422 36.244C48.8582 36.244 49.1522 36.17 49.4242 36.022C49.7002 35.87 49.9542 35.662 50.1862 35.398V30.922H51.2542ZM59.0775 34.264C58.5855 34.28 58.1655 34.32 57.8175 34.384C57.4735 34.444 57.1915 34.524 56.9715 34.624C56.7555 34.724 56.5975 34.842 56.4975 34.978C56.4015 35.114 56.3535 35.266 56.3535 35.434C56.3535 35.594 56.3795 35.732 56.4315 35.848C56.4835 35.964 56.5535 36.06 56.6415 36.136C56.7335 36.208 56.8395 36.262 56.9595 36.298C57.0835 36.33 57.2155 36.346 57.3555 36.346C57.5435 36.346 57.7155 36.328 57.8715 36.292C58.0275 36.252 58.1735 36.196 58.3095 36.124C58.4495 36.052 58.5815 35.966 58.7055 35.866C58.8335 35.766 58.9575 35.652 59.0775 35.524V34.264ZM55.6275 31.78C55.9635 31.456 56.3255 31.214 56.7135 31.054C57.1015 30.894 57.5315 30.814 58.0035 30.814C58.3435 30.814 58.6455 30.87 58.9095 30.982C59.1735 31.094 59.3955 31.25 59.5755 31.45C59.7555 31.65 59.8915 31.892 59.9835 32.176C60.0755 32.46 60.1215 32.772 60.1215 33.112V37H59.6475C59.5435 37 59.4635 36.984 59.4075 36.952C59.3515 36.916 59.3075 36.848 59.2755 36.748L59.1555 36.172C58.9955 36.32 58.8395 36.452 58.6875 36.568C58.5355 36.68 58.3755 36.776 58.2075 36.856C58.0395 36.932 57.8595 36.99 57.6675 37.03C57.4795 37.074 57.2695 37.096 57.0375 37.096C56.8015 37.096 56.5795 37.064 56.3715 37C56.1635 36.932 55.9815 36.832 55.8255 36.7C55.6735 36.568 55.5515 36.402 55.4595 36.202C55.3715 35.998 55.3275 35.758 55.3275 35.482C55.3275 35.242 55.3935 35.012 55.5255 34.792C55.6575 34.568 55.8715 34.37 56.1675 34.198C56.4635 34.026 56.8495 33.886 57.3255 33.778C57.8015 33.666 58.3855 33.602 59.0775 33.586V33.112C59.0775 32.64 58.9755 32.284 58.7715 32.044C58.5675 31.8 58.2695 31.678 57.8775 31.678C57.6135 31.678 57.3915 31.712 57.2115 31.78C57.0355 31.844 56.8815 31.918 56.7495 32.002C56.6215 32.082 56.5095 32.156 56.4135 32.224C56.3215 32.288 56.2295 32.32 56.1375 32.32C56.0655 32.32 56.0035 32.302 55.9515 32.266C55.8995 32.226 55.8555 32.178 55.8195 32.122L55.6275 31.78Z" fill="white"/>
<path d="M16.1185 30.922V37H15.0505V30.922H16.1185ZM16.3465 29.014C16.3465 29.118 16.3245 29.216 16.2805 29.308C16.2405 29.396 16.1845 29.476 16.1125 29.548C16.0445 29.616 15.9625 29.67 15.8665 29.71C15.7745 29.75 15.6765 29.77 15.5725 29.77C15.4685 29.77 15.3705 29.75 15.2785 29.71C15.1905 29.67 15.1125 29.616 15.0445 29.548C14.9765 29.476 14.9225 29.396 14.8825 29.308C14.8425 29.216 14.8225 29.118 14.8225 29.014C14.8225 28.91 14.8425 28.812 14.8825 28.72C14.9225 28.624 14.9765 28.542 15.0445 28.474C15.1125 28.402 15.1905 28.346 15.2785 28.306C15.3705 28.266 15.4685 28.246 15.5725 28.246C15.6765 28.246 15.7745 28.266 15.8665 28.306C15.9625 28.346 16.0445 28.402 16.1125 28.474C16.1845 28.542 16.2405 28.624 16.2805 28.72C16.3245 28.812 16.3465 28.91 16.3465 29.014ZM54.0516 28.162V37H52.9836V28.162H54.0516Z" fill="#E8DB3F"/>
</svg>
